<?xml version="1.0" encoding="utf-8"?>
<!-- Generator: Adobe Illustrator 20.1.0, SVG Export Plug-In . SVG Version: 6.00 Build 0)  -->
<svg version="1.1" id="Layer_1" xmlns="http://www.w3.org/2000/svg" xmlns:xlink="http://www.w3.org/1999/xlink" x="0px" y="0px"
	 viewBox="-49 140.9 367.5 369.1" style="enable-background:new -49 140.9 367.5 369.1;" xml:space="preserve">
<style type="text/css">
	.st0{fill:#3A107B;}
	.st1{fill:none;stroke:#3A107B;stroke-width:3;stroke-miterlimit:10;}
</style>
<g>
	<path class="st0" d="M190.7,338c-9.2,0-16.7,7.5-16.7,16.7s7.5,16.7,16.7,16.7s16.7-7.5,16.7-16.7S199.9,338,190.7,338z
		 M190.7,364.6c-5.5,0-10-4.5-10-10s4.5-10,10-10s10,4.5,10,10S196.2,364.6,190.7,364.6z"/>
	<path class="st0" d="M77.3,338c-9.2,0-16.7,7.5-16.7,16.7s7.5,16.7,16.7,16.7S94,363.8,94,354.6S86.5,338,77.3,338z M77.3,364.6
		c-5.5,0-10-4.5-10-10s4.5-10,10-10s10,4.5,10,10S82.8,364.6,77.3,364.6z"/>
	<path class="st0" d="M230.7,338v-20c0-1.4-0.9-2.7-2.3-3.2l-18.8-6.3c-7.1-12-16.8-23.4-38.3-27.2c0,0-0.1,0-0.1,0
		c-39.7-5.5-69.6,3.5-88.7,26.7c-22.1,0.3-45.1,7.3-45.1,20v10c-1.8,0-3.3,1.5-3.3,3.3v13.3c0,1.8,1.5,3.3,3.3,3.3h13.3
		c1.8,0,3.3-1.5,3.3-3.3c0-12.9,10.5-23.3,23.3-23.3s23.3,10.5,23.3,23.3c0,1.8,1.5,3.3,3.3,3.3h60c1.8,0,3.3-1.5,3.3-3.3
		c0-12.9,10.5-23.3,23.3-23.3s23.3,10.5,23.3,23.3c0,1.8,1.5,3.3,3.3,3.3h13.3c1.8,0,3.3-1.5,3.3-3.3v-13.3
		C234,339.5,232.5,338,230.7,338z M201.3,308h-14l0.1-13.8C193.3,297.7,197.6,302.4,201.3,308z M170.2,287.9c4,0.7,7.5,1.7,10.7,3
		l-0.2,17.1h-33.4v-21.5C154.5,286.3,162,286.8,170.2,287.9z M140.7,286.7V308H91.4C103.8,295.2,120.1,288.2,140.7,286.7z
		 M227.3,351.3h-6.9c-1.7-15-14.4-26.7-29.8-26.7s-28.2,11.7-29.8,26.7h-53.7c-1.7-15-14.4-26.7-29.8-26.7s-28.2,11.7-29.8,26.7
		h-6.9v-6.7c1.8,0,3.3-1.5,3.3-3.3v-10h3.3c1.8,0,3.3-1.5,3.3-3.3s-1.5-3.3-3.3-3.3h-1.7c4.5-4.9,18.3-10,38.4-10h122.8l17.2,5.7
		v4.3h-3.3c-1.8,0-3.3,1.5-3.3,3.3s1.5,3.3,3.3,3.3h3.3v10c0,1.8,1.5,3.3,3.3,3.3V351.3z"/>
</g>
<circle class="st1" cx="134" cy="325.5" r="183"/>
</svg>
