<?xml version="1.0" encoding="utf-8"?>
<!-- Generator: Adobe Illustrator 20.1.0, SVG Export Plug-In . SVG Version: 6.00 Build 0)  -->
<svg version="1.1" id="Layer_1" xmlns="http://www.w3.org/2000/svg" xmlns:xlink="http://www.w3.org/1999/xlink" x="0px" y="0px"
	 viewBox="-49 141 512 512" style="enable-background:new -49 141 512 512;" xml:space="preserve">
<style type="text/css">
	.st0{fill:none;stroke:#3A107B;stroke-width:3;stroke-miterlimit:10;}
	.st1{fill:#3A107B;}
</style>
<ellipse class="st0" cx="205" cy="397" rx="250" ry="250"/>
<g>
	<path class="st1" d="M133.7,397h-13.6c-1.9,0-3.4,1.5-3.4,3.4v88.2c0,5.6,4.6,10.2,10.2,10.2s10.2-4.6,10.2-10.2v-88.2
		C137.1,398.5,135.6,397,133.7,397z M130.4,488.6c0,1.9-1.5,3.4-3.4,3.4s-3.4-1.5-3.4-3.4v-84.8h6.8L130.4,488.6L130.4,488.6z"/>
	<path class="st1" d="M133.7,349.5h-13.6c-1.9,0-3.4,1.5-3.4,3.4v47.5c0,1.9,1.5,3.4,3.4,3.4h13.6c1.9,0,3.4-1.5,3.4-3.4v-47.5
		C137.1,351,135.6,349.5,133.7,349.5z M130.4,397h-6.8v-40.7h6.8V397z"/>
	<path class="st1" d="M300,295.2h-6.8c-7.5,0-13.6,6.1-13.6,13.6v81.4c-0.1,6.8,4.9,12.6,11.6,13.6h0.6h1.4h10.2
		c1.9,0,3.4-1.5,3.4-3.4V302C306.8,298.3,303.7,295.2,300,295.2z M300,397h-7.2h-0.4c-3.4-0.4-6-3.3-6-6.8v-81.4
		c0-3.7,3-6.8,6.8-6.8h6.8L300,397L300,397z"/>
	<path class="st1" d="M120.2,349.5c-5.6,0-10.2-4.6-10.2-10.2v-40.7c0-1.9-1.5-3.4-3.4-3.4c-1.9,0-3.4,1.5-3.4,3.4v40.7
		c0,9.4,7.6,17,17,17c1.9,0,3.4-1.5,3.4-3.4C123.6,351,122.1,349.5,120.2,349.5z"/>
	<path class="st1" d="M147.3,295.2c-1.9,0-3.4,1.5-3.4,3.4v40.7c0,5.6-4.6,10.2-10.2,10.2c-1.9,0-3.4,1.5-3.4,3.4s1.5,3.4,3.4,3.4
		c9.4,0,17-7.6,17-17v-40.7C150.7,296.7,149.2,295.2,147.3,295.2z"/>
	<path class="st1" d="M147.3,332.6h-40.7c-1.9,0-3.4,1.5-3.4,3.4s1.5,3.4,3.4,3.4h40.7c1.9,0,3.4-1.5,3.4-3.4
		S149.2,332.6,147.3,332.6z"/>
	<path class="st1" d="M120.2,295.2c-1.9,0-3.4,1.5-3.4,3.4v37.3c0,1.9,1.5,3.4,3.4,3.4c1.9,0,3.4-1.5,3.4-3.4v-37.3
		C123.6,296.7,122.1,295.2,120.2,295.2z"/>
	<path class="st1" d="M133.7,295.2c-1.9,0-3.4,1.5-3.4,3.4v37.3c0,1.9,1.5,3.4,3.4,3.4c1.9,0,3.4-1.5,3.4-3.4v-37.3
		C137.1,296.7,135.6,295.2,133.7,295.2z"/>
	<path class="st1" d="M303.4,397h-13.6c-1.9,0-3.4,1.5-3.4,3.4v88.2c0,5.6,4.6,10.2,10.2,10.2s10.2-4.6,10.2-10.2v-88.2
		C306.8,398.5,305.3,397,303.4,397z M300,488.6c0,1.9-1.5,3.4-3.4,3.4s-3.4-1.5-3.4-3.4v-84.8h6.8L300,488.6L300,488.6z"/>
	<path class="st1" d="M295.3,399.9c-0.1-0.3-0.2-0.6-0.3-0.9c-0.5-1.1-1.5-1.8-2.7-2c-3.4-0.4-6-3.3-6-6.8v-15.7
		c0-0.6-0.2-1.1-0.4-1.6c-10.8-19.4-28.7-33.9-50-40.2c-44.9-13.3-92.1,12.2-105.5,57.2c0,0.3,0,0.6,0,0.9v46.4c0,0.3,0,0.7,0,1
		c10.9,35.9,43.9,60.5,81.4,60.6c37.5-0.1,70.6-24.7,81.4-60.6c0-0.3,0-0.7,0-1v-33.6C294.7,403,295.6,401.5,295.3,399.9z
		 M286.4,436.7c-7.6,24.9-27,44.3-51.9,51.9c-41.2,12.6-84.8-10.7-97.4-51.9v-45.4c5.8-19.1,18.7-35.2,36.1-45.1
		c37.5-21.3,85.1-8.2,106.4,29.3v14.7c0,4.8,2.6,9.3,6.8,11.7V436.7z"/>
	<path class="st1" d="M211.8,356.3c-31.9,0-57.7,25.8-57.7,57.7s25.8,57.7,57.7,57.7s57.7-25.8,57.7-57.7S243.6,356.3,211.8,356.3z
		 M211.8,464.9c-28.1,0-50.9-22.8-50.9-50.9s22.8-50.9,50.9-50.9c28.1,0,50.9,22.8,50.9,50.9S239.9,464.9,211.8,464.9z"/>
	<path class="st1" d="M211.8,369.9c-24.4,0-44.1,19.8-44.1,44.1c0,1.9,1.5,3.4,3.4,3.4s3.4-1.5,3.4-3.4c0-20.6,16.7-37.3,37.3-37.3
		c1.9,0,3.4-1.5,3.4-3.4C215.2,371.4,213.7,369.9,211.8,369.9z"/>
	<path class="st1" d="M252.5,410.6c-1.9,0-3.4,1.5-3.4,3.4c0,20.6-16.7,37.3-37.3,37.3c-1.9,0-3.4,1.5-3.4,3.4s1.5,3.4,3.4,3.4
		c24.4,0,44.1-19.7,44.1-44.1C255.9,412.1,254.4,410.6,252.5,410.6z"/>
</g>
</svg>
