<?xml version="1.0" encoding="utf-8"?>
<!-- Generator: Adobe Illustrator 20.1.0, SVG Export Plug-In . SVG Version: 6.00 Build 0)  -->
<svg version="1.1" id="Layer_1" xmlns="http://www.w3.org/2000/svg" xmlns:xlink="http://www.w3.org/1999/xlink" x="0px" y="0px"
	 viewBox="-49 141 512 512" style="enable-background:new -49 141 512 512;" xml:space="preserve">
<style type="text/css">
	.st0{fill:none;stroke:#3A107B;stroke-width:3;stroke-miterlimit:10;}
	.st1{fill:#3A107B;}
</style>
<ellipse class="st0" cx="206.7" cy="397.2" rx="252.7" ry="253.2"/>
<g>
	<path class="st1" d="M271.2,343.5h-17.8c0,0,0-9,0-9.6c0-18.8-20.5-33.5-46.8-33.5s-46.8,14.7-46.8,33.5c0,0.6,0,9.6,0,9.6h-17.8
		c-12.2,0-22.1,9.9-22.1,22.1v123.7c0,2.6,2.1,4.7,4.7,4.7h163.8c2.6,0,4.7-2.1,4.7-4.7V365.6C293.3,353.4,283.4,343.5,271.2,343.5z
		 M170.6,350.8c6.9,5.3,15.9,9.5,23.1,12.4l-23.1,13.1V350.8z M201.3,483.2h-70.5V365.6c0-6.2,5.1-11.3,11.3-11.3h17.8v31.2
		c0,1.9,1,3.7,2.7,4.6c0.8,0.5,3.3,1.1,5.3,0l33.4-18.9V483.2z M170.6,333.9c0-12.3,16.5-22.8,36.1-22.8c19.5,0,36.1,10.4,36.1,22.8
		c0,7.3-20.5,17.5-36.1,22.5C191.1,351.4,170.6,341.2,170.6,333.9z M242.7,350.8v25.5l-23.1-13.1
		C226.8,360.3,235.9,356.1,242.7,350.8z M282.5,483.2H212v-112l33.4,18.9c2.4,1,4.5,0.5,5.3,0c1.6-1,2.7-2.7,2.7-4.6v-31.2h17.8
		c6.2,0,11.3,5.1,11.3,11.3V483.2L282.5,483.2L282.5,483.2z"/>
	<path class="st1" d="M266.4,413.4h-30.7c-1.8,0-3.5,0.9-4.4,2.5c-2.2,4.1,0.8,8.2,4.6,8.2h30.7c1.8,0,3.5-0.9,4.4-2.5
		C273.2,417.5,270.3,413.4,266.4,413.4z"/>
</g>
</svg>
