<?xml version="1.0" encoding="utf-8"?>
<!-- Generator: Adobe Illustrator 20.1.0, SVG Export Plug-In . SVG Version: 6.00 Build 0)  -->
<svg version="1.1" id="Layer_1" xmlns="http://www.w3.org/2000/svg" xmlns:xlink="http://www.w3.org/1999/xlink" x="0px" y="0px"
	 viewBox="-49 141 512 512" style="enable-background:new -49 141 512 512;" xml:space="preserve">
<style type="text/css">
	.st0{fill:none;stroke:#3A107B;stroke-width:3;stroke-miterlimit:10;}
	.st1{fill:#3A107B;}
</style>
<ellipse class="st0" cx="206" cy="396.5" rx="251" ry="250.5"/>
<g>
	<path class="st1" d="M310.9,398.1c-2.7,0-5.2,0.7-7.5,1.7c-3.4-4.3-8.7-7.1-14.6-7.1c-3.1,0-5.9,0.8-8.3,2l-0.3,0.1l-7.6,4.5
		c-3.4-4.1-8.5-6.7-14.2-6.7c-3.1,0-5.9,0.8-8.3,2l-0.3,0.2l-29,17.7c-6.6-1.9-13.8-4.1-20.9-6c-7.4-2.1-14.6-4.1-20.3-5.5
		c-2.9-0.7-5.4-1.3-7.4-1.7c-1-0.2-1.9-0.4-2.7-0.5c-0.8-0.1-1.5-0.2-2.3-0.2c-0.6,0-1.1,0.1-1.7,0.1c-2.1,0.3-5.2,0.9-8.8,1.8
		c-7.3,1.7-16.7,4.2-21.9,5.6v-8.7c0-6.1-5-11-11-11H93.5c-6.1,0-11,5-11,11v85.4c0,6.1,5,11,11,11h30.4c6.1,0,11-5,11-11v-6.6
		c6.6,1.4,21.1,4.6,36.4,7.7c10.4,2.1,21.1,4.3,29.9,5.9c4.4,0.8,8.4,1.5,11.6,1.9c3.3,0.5,5.7,0.8,7.6,0.8c1.4,0,2.8-0.3,4.3-0.7
		c2.8-0.8,5.9-2.1,9.5-3.8c12.5-6.1,30.4-17.4,47.3-28.7c16.9-11.2,32.7-22.3,40.4-27.7c4.8-3.3,7.6-9,7.6-14.9
		C329.5,406.4,321.2,398.1,310.9,398.1z M126.7,482.8c0,1.5-1.3,2.8-2.8,2.8H93.5c-1.5,0-2.8-1.3-2.8-2.8v-85.4
		c0-1.5,1.3-2.8,2.8-2.8h30.4c1.5,0,2.8,1.3,2.8,2.8V482.8z M317.2,424.8c-9.5,6.5-30.8,21.5-51.4,34.9
		c-10.3,6.7-20.4,12.9-28.7,17.5c-4.1,2.3-7.8,4.1-10.8,5.3c-1.5,0.6-2.8,1.1-3.8,1.4c-1,0.3-1.8,0.4-2.1,0.4
		c-0.9,0-3.3-0.2-6.4-0.7c-10.9-1.6-31.2-5.6-48.8-9.3c-8.8-1.8-16.8-3.6-22.7-4.8c-3.4-0.7-6.1-1.3-7.7-1.7v-53
		c0.8-0.2,1.9-0.5,3.1-0.9c4.4-1.2,11-3,17-4.4c3-0.7,5.8-1.4,8-1.9c1.1-0.2,2.1-0.4,2.8-0.5c0.7-0.1,1.3-0.2,1.3-0.2
		c0,0,0.4,0,1,0.1c2.3,0.3,7,1.4,12.7,2.9c17.2,4.5,44.3,12.6,55.2,15.9c3.8,1.1,7.2,2.9,9.5,4.9c1.1,1,2,2.2,2.6,3.4
		c0.6,1.2,0.9,2.5,0.9,4.1c0,3.2-1.3,6.1-3.4,8.3c-2.1,2.1-5,3.4-8.2,3.4l-10.7-1l-36.5-4.7c-2.3-0.3-4.3,1.3-4.6,3.6
		c-0.3,2.3,1.3,4.3,3.6,4.6l36.6,4.7l11.3,1.1h0.2c11,0,20-8.9,20-20c0-2.8-0.6-5.4-1.7-7.7c-1.6-3.4-4.3-6.1-7.3-8.1
		c-3-2-6.4-3.5-9.8-4.5c-1.9-0.6-4.3-1.3-7.1-2.1L254,402c1.5-0.7,2.9-1.1,4.5-1.1c2.7,0,5.1,1,6.9,2.7l-11.1,6.6
		c-2,1.2-2.6,3.7-1.4,5.7c1.2,2,3.7,2.6,5.7,1.4l25.8-15.3c1.5-0.7,3-1.1,4.5-1.1c2.9,0,5.4,1.2,7.3,3.1l-30,17.8
		c-2,1.2-2.6,3.7-1.4,5.7c1.2,2,3.7,2.6,5.7,1.4l32.4-19.2c0.3-0.1,0.6-0.1,0.9-0.3c0.7-0.3,1.2-0.7,1.6-1.3l1-0.6
		c1.5-0.7,3-1.1,4.5-1.1c2.8,0,5.4,1.1,7.3,3c1.9,1.9,3,4.4,3,7.3C321.2,420.1,319.6,423.2,317.2,424.8z"/>
	<path class="st1" d="M175,345.4c0,2.3,1.9,4.1,4.1,4.1h5.2c5.3,14.3,19,24.5,35.1,24.5c6.8,0,13.2-1.9,18.7-5
		c2-1.1,2.7-3.7,1.5-5.6c-1.1-2-3.7-2.6-5.7-1.5c-4.3,2.5-9.3,3.9-14.6,3.9c-8.1,0-15.3-3.3-20.6-8.5c-2.2-2.2-4.1-4.9-5.5-7.7h31.4
		c2.3,0,4.1-1.9,4.1-4.1c0-2.3-1.9-4.1-4.1-4.1h-34c-0.2-1.5-0.4-3-0.4-4.6c0-1.6,0.2-3.1,0.4-4.6h34c2.3,0,4.1-1.9,4.1-4.1
		c0-2.3-1.9-4.1-4.1-4.1h-31.4c1.4-2.9,3.3-5.5,5.5-7.7c5.3-5.3,12.6-8.5,20.6-8.5c5.3,0,10.3,1.4,14.6,3.9c2,1.1,4.5,0.5,5.7-1.5
		c1.1-2,0.5-4.5-1.5-5.6c-5.5-3.2-11.9-5-18.7-5c-16.2,0-29.9,10.2-35.1,24.5h-5.2c-2.3,0-4.1,1.8-4.1,4.1c0,2.3,1.9,4.1,4.1,4.1
		h3.2c-0.2,1.5-0.3,3.1-0.3,4.6c0,1.6,0.1,3.1,0.3,4.6h-3.2C176.8,341.2,175,343.1,175,345.4z"/>
</g>
</svg>
