<?xml version="1.0" encoding="utf-8"?>
<!-- Generator: Adobe Illustrator 20.1.0, SVG Export Plug-In . SVG Version: 6.00 Build 0)  -->
<svg version="1.1" id="Layer_1" xmlns="http://www.w3.org/2000/svg" xmlns:xlink="http://www.w3.org/1999/xlink" x="0px" y="0px"
	 viewBox="-49 141 512 512" style="enable-background:new -49 141 512 512;" xml:space="preserve">
<style type="text/css">
	.st0{fill:none;stroke:#3A107B;stroke-width:3;stroke-miterlimit:10;}
	.st1{fill:#3A107B;}
</style>
<g>
	<ellipse class="st0" cx="207" cy="396.3" rx="252.3" ry="251.7"/>
	<g>
		<path class="st1" d="M293.9,468.9c-0.6,0-1.2,0.1-1.8,0.2c-2.4-4.3-6.9-7-12-7c-5.1,0-9.7,2.8-12,7c-0.6-0.1-1.2-0.2-1.8-0.2
			c-5.7,0-10.4,4.6-10.4,10.3c0,1.2,0.2,2.4,0.6,3.4h-14.5V462h17.3c1.9,0,3.5-1.5,3.5-3.4V320.7c0-1.9-1.5-3.4-3.5-3.4H155.7
			c-1.9,0-3.5,1.5-3.5,3.4v165.4c0,1.9,1.5,3.4,3.5,3.4h138.2c5.7,0,10.4-4.6,10.4-10.3C304.3,473.5,299.6,468.9,293.9,468.9z
			 M242.1,324.2h13.8v20.7h-13.8V324.2z M242.1,351.7h13.8v20.7h-13.8V351.7z M242.1,379.3h13.8V400h-13.8V379.3z M242.1,406.9h13.8
			v20.7h-13.8V406.9z M242.1,434.4h13.8v20.7h-13.8V434.4z M173,482.7h-13.8V462H173V482.7z M173,455.1h-13.8v-20.7H173V455.1z
			 M173,427.5h-13.8v-20.7H173V427.5z M173,400h-13.8v-20.7H173V400z M173,372.4h-13.8v-20.7H173V372.4z M173,344.8h-13.8v-20.7H173
			V344.8z M193.7,482.7h-13.8V462h13.8V482.7z M193.7,455.1h-13.8v-20.7h13.8V455.1z M193.7,427.5h-13.8v-20.7h13.8V427.5z
			 M193.7,400h-13.8v-20.7h13.8V400z M193.7,372.4h-13.8v-20.7h13.8V372.4z M193.7,344.8h-13.8v-20.7h13.8V344.8z M214.5,482.7
			h-13.8V462h13.8V482.7z M214.5,455.1h-13.8v-20.7h13.8V455.1z M214.5,427.5h-13.8v-20.7h13.8V427.5z M214.5,400h-13.8v-20.7h13.8
			V400z M214.5,372.4h-13.8v-20.7h13.8V372.4z M214.5,344.8h-13.8v-20.7h13.8V344.8z M235.2,482.7h-13.8V462h13.8V482.7z
			 M235.2,455.1h-13.8v-20.7h13.8V455.1z M235.2,427.5h-13.8v-20.7h13.8V427.5z M235.2,400h-13.8v-20.7h13.8V400z M235.2,372.4
			h-13.8v-20.7h13.8V372.4z M235.2,344.8h-13.8v-20.7h13.8V344.8z M293.9,482.7h-27.6c-1.9,0-3.5-1.5-3.5-3.4c0-1.9,1.6-3.4,3.5-3.4
			c0.7,0,1.3,0.2,1.9,0.6c0.9,0.6,2.1,0.7,3.2,0.3c1-0.4,1.8-1.3,2.1-2.4c0.7-3.1,3.5-5.3,6.7-5.3c3.2,0,6,2.2,6.7,5.3
			c0.3,1.1,1,2,2.1,2.4c1,0.4,2.2,0.3,3.2-0.3c2.2-1.4,5.3,0.3,5.3,2.9C297.4,481.1,295.8,482.7,293.9,482.7z"/>
		<path class="st1" d="M173,306.9v-10.3h24.2c1.9,0,3.5-1.5,3.5-3.4v-3.4h13.8v3.4c0,1.9,1.5,3.4,3.5,3.4h24.2v6.9h-58.7
			c-1.9,0-3.5,1.5-3.5,3.4c0,1.9,1.5,3.4,3.5,3.4h86.4v142.9c0,1.9,1.5,3.4,3.5,3.4c1.9,0,3.5-1.5,3.5-3.4V306.9
			c0-1.9-1.5-3.4-3.5-3.4H249v-10.3c0-1.9-1.5-3.4-3.5-3.4h-24.2v-3.4c0-1.9-1.5-3.4-3.5-3.4h-20.7c-1.9,0-3.5,1.5-3.5,3.4v3.4
			h-24.2c-1.9,0-3.5,1.5-3.5,3.4v10.3h-24.2c-1.9,0-3.5,1.5-3.5,3.4v175.7h-20.7v-14.1c7.9-1.6,13.8-8.6,13.8-16.9
			c0-0.4-0.2-44.8-17.3-44.8c-17.1,0-17.3,44.3-17.3,44.8c0,8.3,5.9,15.3,13.8,16.9v14.1h-10.4c-1.9,0-3.5,1.5-3.5,3.4
			c0,1.9,1.5,3.4,3.5,3.4h41.5c1.9,0,3.5-1.5,3.5-3.4V310.4h24.2C171.5,310.4,173,308.8,173,306.9z M103.9,451.6
			c0-17.2,4.6-37.9,10.4-37.9c5.7,0,10.4,20.7,10.4,37.9c0,5.7-4.6,10.3-10.4,10.3C108.6,462,103.9,457.3,103.9,451.6z"/>
	</g>
</g>
</svg>
