<?xml version="1.0" encoding="utf-8"?>
<!-- Generator: Adobe Illustrator 20.1.0, SVG Export Plug-In . SVG Version: 6.00 Build 0)  -->
<svg version="1.1" id="Режим_изоляции"
	 xmlns="http://www.w3.org/2000/svg" xmlns:xlink="http://www.w3.org/1999/xlink" x="0px" y="0px" viewBox="-49 141 512 512"
	 style="enable-background:new -49 141 512 512;" xml:space="preserve">
<style type="text/css">
	.st0{fill:none;stroke:#3A107B;stroke-width:3;stroke-miterlimit:10;}
	.st1{fill:#3A107B;}
</style>
<g>
	<ellipse class="st0" cx="207.7" cy="397.5" rx="250.3" ry="252.2"/>
	<g>
		<path class="st1" d="M284.4,351.6l-21-21.2h-54v-3.9c8-1.6,14-8.8,14-17.3c0-9.7-7.9-17.6-17.5-17.6c-9.7,0-17.5,7.9-17.5,17.6
			c0,8.5,6,15.6,14,17.3v3.9h-27.5c-6.1,0-11,5-11,11.1v10.1h-12l-21,21.2l21,21.2h50.5v74.1h-17.5v14.1h-10.5v21.2h63.1v-21.2
			h-10.5v-14.1h-17.5V394h31c6.1,0,11-5,11-11.1v-10.1h12L284.4,351.6z M195.4,309.3c0-5.8,4.7-10.6,10.5-10.6
			c5.8,0,10.5,4.7,10.5,10.6c0,5.8-4.7,10.6-10.5,10.6C200.1,319.9,195.4,315.1,195.4,309.3L195.4,309.3z M230.4,489.2v7h-49v-7
			H230.4z M219.9,482.2h-28v-7h28V482.2z M244.4,382.9c0,2.2-1.8,4-4,4h-85.6l-14-14.1l14-14.1h85.6c2.2,0,4,1.8,4,4V382.9z
			 M251.5,365.7v-3c0-6.1-4.9-11.1-11-11.1h-69.6v-10.1c0-2.2,1.8-4,4-4h85.6l14,14.1l-14,14.1H251.5z M251.5,365.7"/>
	</g>
</g>
</svg>
