<?xml version="1.0" encoding="utf-8"?>
<!-- Generator: Adobe Illustrator 20.1.0, SVG Export Plug-In . SVG Version: 6.00 Build 0)  -->
<svg version="1.1" id="Layer_1" xmlns="http://www.w3.org/2000/svg" xmlns:xlink="http://www.w3.org/1999/xlink" x="0px" y="0px"
	 viewBox="-49 141 512 512" style="enable-background:new -49 141 512 512;" xml:space="preserve">
<style type="text/css">
	.st0{fill:none;stroke:#3A107B;stroke-width:3;stroke-miterlimit:10;}
	.st1{fill:#3A107B;}
</style>
<ellipse class="st0" cx="206.8" cy="397.3" rx="254.2" ry="252.7"/>
<path class="st1" d="M288.8,320.7v-0.3H125.1v0.3c-5.3,0.4-9.3,4.6-9.9,9.7V438c0,2.1,0.5,3.8,1.4,5.4c2.1,3.6,5.1,5.5,9.3,5.5h59.1
	v14.9h-11.2c-2.8,0-4.9,2.2-4.9,4.9c0,2.8,2.2,4.9,4.9,4.9H240c2.8,0,5-2.2,5-4.9c0-2.8-2.2-4.9-5-4.9h-11.2v-14.9h59.1
	c4.2,0,7.3-1.8,9.3-5.5c0.9-1.6,1.5-3.4,1.5-5.4V330.4C298.1,325.2,293.9,321,288.8,320.7L288.8,320.7z M288.8,331.3V438
	c0,0.6-0.3,0.9-0.9,0.9H126c-0.6,0-0.9-0.3-0.9-0.9V330.4h163.7V331.3z M288.8,331.3"/>
</svg>
