<?xml version="1.0" encoding="utf-8"?>
<!-- Generator: Adobe Illustrator 20.1.0, SVG Export Plug-In . SVG Version: 6.00 Build 0)  -->
<svg version="1.1" id="Layer_1" xmlns="http://www.w3.org/2000/svg" xmlns:xlink="http://www.w3.org/1999/xlink" x="0px" y="0px"
	 viewBox="-49 141 512 512" style="enable-background:new -49 141 512 512;" xml:space="preserve">
<style type="text/css">
	.st0{fill:none;stroke:#3A107B;stroke-width:3;stroke-miterlimit:10;}
	.st1{fill:#3A107B;}
</style>
<ellipse class="st0" cx="207.7" cy="396.7" rx="252.3" ry="252.6"/>
<path class="st1" d="M286.2,392.6c-1.5-0.8-3.3-0.8-4.8,0l-21.3,12.6v-3.8c0-7.4-5.7-13.5-12.9-14.2c7.9-7,12.9-17.2,12.9-28.5
	c0-20.9-17-38-37.9-38c-10.1,0-19.8,3.9-27.1,11.1c-3.6,3.5-6.4,7.6-8.4,12.1c-6-8.3-15.8-13.6-26.8-13.6
	c-18.3,0-33.2,14.9-33.2,33.2c0,9.5,4,18.2,10.5,24.2c-6,1.6-10.5,7.2-10.5,13.7v56.9c0,7.8,6.4,14.2,14.2,14.2h104.9
	c7.8,0,14.2-6.4,14.2-14.2v-3.8l21.3,12.6c1.5,0.9,3.3,0.9,4.8,0c1.5-0.8,2.4-2.4,2.4-4.1v-66.4C288.6,395,287.6,393.5,286.2,392.6z
	 M222.2,330.3c15.7,0,28.4,12.8,28.4,28.5s-12.8,28.5-28.4,28.5c-15.8,0-29.1-13-29.1-28.5S206.4,330.3,222.2,330.3z M196.8,387.2
	h-13.7c2.5-2.5,4.7-5.4,6.3-8.5c1.6,2.5,3.5,4.8,5.7,7C195.7,386.2,196.3,386.7,196.8,387.2z M136.3,363.5
	c0-13.1,10.6-23.7,23.7-23.7s23.7,10.6,23.7,23.7S173,387.2,160,387.2S136.3,376.6,136.3,363.5z M250.6,458.4c0,2.6-2.1,4.7-4.7,4.7
	H141c-2.6,0-4.7-2.1-4.7-4.7v-56.9c0-2.6,2.1-4.7,4.7-4.7h104.9c2.6,0,4.7,2.1,4.7,4.7V458.4z M279.1,454.8l-19-11.2v-27.3l19-11.2
	V454.8z"/>
</svg>
