<?xml version="1.0" encoding="utf-8"?>
<!-- Generator: Adobe Illustrator 20.1.0, SVG Export Plug-In . SVG Version: 6.00 Build 0)  -->
<svg version="1.1" id="Layer_1" xmlns="http://www.w3.org/2000/svg" xmlns:xlink="http://www.w3.org/1999/xlink" x="0px" y="0px"
	 viewBox="-49 141 512 512" style="enable-background:new -49 141 512 512;" xml:space="preserve">
<style type="text/css">
	.st0{fill:none;stroke:#3A107B;stroke-width:3;stroke-miterlimit:10;}
	.st1{fill:#3A107B;}
</style>
<ellipse class="st0" cx="206.7" cy="396.7" rx="252.7" ry="252"/>
<g>
	<path class="st1" d="M157.7,392.3c-1.1-6.1-6.9-10.1-13-9c-2.9,0.5-5.5,2.2-7.2,4.6c-1.7,2.5-2.3,5.4-1.8,8.4
		c0.6,3,2.3,5.5,4.6,7.2c2.4,1.6,5.3,2.3,8.4,1.8c2.9-0.5,5.5-2.2,7.2-4.6C157.6,398.2,158.2,395.3,157.7,392.3L157.7,392.3z
		 M147.4,398c-2,0.4-4-1-4.3-3c-0.2-1,0-2,0.6-2.8c0.6-0.8,1.4-1.4,2.4-1.5c1-0.2,2,0.1,2.8,0.6c0.8,0.5,1.4,1.4,1.6,2.4l0,0
		c0.2,1,0,2-0.6,2.8C149.2,397.3,148.3,397.8,147.4,398L147.4,398z M147.4,398"/>
	<path class="st1" d="M314.5,416.4c1.1-2.6,0.9-5.5-0.5-7.8c-1-1.6-0.5-3.3,0.4-6.1c0.9-2.8,2.6-7.9-2.6-10.9
		c-1.7-1-2.9-2.4-3.2-4.1c-0.3-1.7,0.2-3.4,1.5-4.9c2.7-3.2,3.9-7.2,3.1-11.1c-0.7-3.6-2.9-6.7-6.4-9c0.1-0.2,0.2-0.5,0.3-0.7
		c1.2-2.6,3.6-8-2.5-13.5c-0.9-1.2-3.6-4.2-7.4-4.4c-1.8-0.1-4.5,0.4-7.3,3.7l-13.4,19.1l-31.4-21.6c-4.9-3.4-10-6-15.3-8.2
		c2.6-7.3,4-15,3.8-23l-0.1-3.1l-3.1-0.5c-0.8-0.1-19.3-2.7-31.4,6.6c-4.9,3.7-8,8.8-9.3,15.2c-21,2.9-40.7,14.1-53.7,32.8L98,420.2
		l54.9,37.9c17.3,12,38.3,16.5,59,12.7c2.5-0.5,5-1,7.4-1.7c1.3,1,2.6,2.1,4.1,3.1c8.7,6,21.1,11.4,37.6,11.1l3.1-0.1l0.5-3.1
		c0.2-1,3-21.9-8.7-33.7c2.4-2.6,4.6-5.3,6.7-8.3l21.6-31.1l19.3,13.6l0.3,0.1c1.6,0.7,3.3,1,5,0.6l0,0
		C311.3,420.8,313.5,418.9,314.5,416.4L314.5,416.4z M197.8,331.5c1.1-3.5,3.1-6.3,5.9-8.5c6.9-5.4,17.3-5.6,22.6-5.4
		c-0.2,5.9-1.3,11.6-3.3,17.1c-3.4-1-6.9-1.7-10.3-2.3c-0.8-0.1-1.7-0.3-2.5-0.4c-1.2-0.1-2.3-0.2-3.5-0.3c-1.2-0.1-2.4-0.2-3.6-0.2
		c-1.1,0-2.2,0-3.3,0C199.1,331.5,198.5,331.4,197.8,331.5L197.8,331.5z M250.7,451.7c6.8,6.8,7.1,18.5,6.8,24.1
		c-12.8-0.4-22.7-4.9-29.7-9.7c8.2-3.4,15.8-8.1,22.4-14C250.3,451.9,250.5,451.8,250.7,451.7L250.7,451.7z M307.1,414.1l-24.8-17.4
		l-25.8,37.3c-2.5,3.5-5.2,6.8-8.2,9.8l-0.4,0.4c-0.8,0.8-1.7,1.6-2.5,2.3c-0.4,0.3-0.7,0.7-1.1,1c-7.3,6.3-16,11.1-25.3,13.9
		l-2.2,0.7c-2,0.6-4.1,1.1-6.2,1.5c-18.8,3.4-37.7-0.7-53.4-11.5l-48.7-33.6l34-49c12.3-17.8,31.4-28.2,51.5-30.1
		c7.6-0.7,15.2-0.2,22.5,1.4c0.1,0,0.1,0,0.2,0c2.4,0.6,4.8,1.2,7.2,2.1c6,2.1,11.7,4.9,17.2,8.6l37.5,25.8l17.4-24.9
		c0.5-0.6,0.9-0.8,1-0.8c0.4,0,1.4,0.8,2,1.6l0.6,0.7c2.3,2,1.9,2.8,0.9,5.2c-0.8,1.9-3,6.9,2.4,9.9c1.7,1,2.9,2.4,3.2,4.1
		c0.3,1.6-0.2,3.4-1.5,4.9c-2.7,3.3-3.9,7.2-3.2,11.1c0.7,3.8,3,7,6.6,9.1c-0.1,0.6-0.4,1.6-0.6,2.2c-1,3-2.4,7.6,0.4,12.2
		c0.2,0.3,0.1,0.7,0,1C307.6,413.6,307.4,414,307.1,414.1L307.1,414.1z M307.2,414.8L307.2,414.8l0.7,2.9L307.2,414.8z M307.2,414.8
		"/>
	<path class="st1" d="M166.8,365.3l-4.3,6.1c23.7,16.4,29.7,48.9,13.3,72.5l6.1,4.2C200.7,421.2,193.9,384,166.8,365.3L166.8,365.3z
		 M166.8,365.3"/>
	<path class="st1" d="M183.7,362.2l-4.3,6.1c23.7,16.4,29.7,48.9,13.3,72.5l6.1,4.2C217.6,418.1,210.8,380.9,183.7,362.2
		L183.7,362.2z M183.7,362.2"/>
	<path class="st1" d="M199.9,359.3l-4.3,6.1c23.7,16.4,29.7,48.9,13.3,72.5l6.1,4.2C233.8,415.2,227,378,199.9,359.3L199.9,359.3z
		 M199.9,359.3"/>
	<path class="st1" d="M216.8,356.2l-4.2,6.1c23.7,16.4,29.7,48.9,13.3,72.5l6.1,4.2C250.7,412.1,243.9,374.9,216.8,356.2
		L216.8,356.2z M216.8,356.2"/>
</g>
</svg>
