<?xml version="1.0" encoding="utf-8"?>
<!-- Generator: Adobe Illustrator 20.1.0, SVG Export Plug-In . SVG Version: 6.00 Build 0)  -->
<svg version="1.1" id="Layer_1" xmlns="http://www.w3.org/2000/svg" xmlns:xlink="http://www.w3.org/1999/xlink" x="0px" y="0px"
	 viewBox="-49 141 512 512" style="enable-background:new -49 141 512 512;" xml:space="preserve">
<style type="text/css">
	.st0{fill:none;stroke:#3A107B;stroke-width:3;stroke-miterlimit:10;}
	.st1{fill:#3A107B;}
</style>
<circle class="st0" cx="206.2" cy="397.8" r="250.8"/>
<g>
	<path class="st1" d="M293.8,302.1c-3.1-0.5-6.3,0.5-8.5,2.7l-9.2,9.3c-4.1-0.6-8.2,0.4-11.6,2.7c-6.5-4.5-15.2-3.7-20.8,1.9l-1,1
		c-6-2.4-12.9-0.9-17.5,3.6l-4.6,4.6c-1.4,1.4-2,3.3-1.9,5.2c-7.2,1.9-13.7,5.7-19,11c-0.1,0.1-0.1,0.2-0.2,0.3
		c-0.1,0.1-0.2,0.1-0.3,0.2l-87.5,87.5c-7.7,7.7-7.7,20.1,0,27.8l32.4,32.4c7.7,7.7,20.1,7.7,27.8,0l87.5-87.5
		c0.1-0.1,0.1-0.2,0.2-0.3c0.1-0.1,0.2-0.1,0.3-0.2c5.3-5.2,9-11.8,11-19c0.2,0,0.4,0.1,0.6,0.1c1.7,0,3.4-0.7,4.6-1.9l4.6-4.6
		c4.6-4.6,6-11.5,3.6-17.5l1-1c5.6-5.6,6.3-14.3,1.9-20.8c2.3-3.4,3.3-7.5,2.8-11.6l9-9c3.1-3,4-7.6,2.1-11.5
		C299.6,304.6,296.9,302.6,293.8,302.1z M248.3,323.3c3.8-3.8,10-3.8,13.9,0l0,0l0,0l0,0l18.5,18.5c3.8,3.8,3.8,10,0,13.9l0,0
		l-16.2-16.2L248.3,323.3L248.3,323.3z M257.4,397.3l-20.7-20.7c-3.6-3.5-8.3-5.9-13.3-6.7c-4-0.5-7.1-3.7-7.7-7.7
		c-0.8-5-3.1-9.7-6.7-13.3l-2.3-2.3c4.5-3.8,9.9-6.4,15.6-7.5l42.6,42.6C263.8,387.4,261.2,392.8,257.4,397.3L257.4,397.3z
		 M167.3,487.6c-5.1,5.1-13.4,5.1-18.5,0l-32.4-32.4c-5.1-5.1-5.1-13.4,0-18.5l85.6-85.6l2.5,2.5c2.6,2.7,4.3,6.1,4.8,9.8
		c1,6.8,6.3,12.1,13,13c3.7,0.6,7.1,2.2,9.8,4.8l20.8,20.8L167.3,487.6z M276,374.2l-4.6,4.6l-46.3-46.3l4.6-4.6
		c3.8-3.8,10-3.8,13.9,0l32.4,32.4C279.9,364.2,279.9,370.4,276,374.2L276,374.2z M294.3,314.3l-9,9c-1.5,1.5-2.2,3.5-1.9,5.6
		c0.3,1.9,0,3.9-0.9,5.6l-13-13c1.7-0.9,3.7-1.2,5.6-0.9c2.1,0.3,4.1-0.4,5.6-1.9l9.2-9.2c0.8-0.8,1.8-1.1,2.9-0.9
		c1.1,0.2,2,0.9,2.4,1.8C295.8,311.8,295.4,313.3,294.3,314.3L294.3,314.3z"/>
	<path class="st1" d="M241.3,399.7l-4.6-4.6c-0.8-0.8-2-1.1-3.2-0.8s-2,1.2-2.3,2.3s0,2.3,0.8,3.2l4.6,4.6c1.3,1.3,3.3,1.3,4.6,0
		S242.6,401,241.3,399.7L241.3,399.7z"/>
	<path class="st1" d="M227.4,404.3c-1.3-1.3-3.3-1.3-4.6,0c-1.3,1.3-1.3,3.3,0,4.6l4.6,4.6c1.3,1.3,3.3,1.3,4.6,0
		c1.3-1.3,1.3-3.3,0-4.6L227.4,404.3z"/>
	<path class="st1" d="M218.2,413.6c-0.8-0.8-2-1.1-3.2-0.8s-2,1.2-2.3,2.3c-0.3,1.1,0,2.3,0.8,3.2l4.6,4.6c1.3,1.3,3.3,1.3,4.6,0
		c1.3-1.3,1.3-3.3,0-4.6L218.2,413.6z"/>
	<path class="st1" d="M208.9,422.8c-1.3-1.3-3.3-1.3-4.6,0c-1.3,1.3-1.3,3.3,0,4.6l4.6,4.6c1.3,1.3,3.3,1.3,4.6,0
		c1.3-1.3,1.3-3.3,0-4.6L208.9,422.8z"/>
	<path class="st1" d="M199.7,432.1c-0.8-0.8-2-1.1-3.2-0.8s-2,1.2-2.3,2.3s0,2.3,0.8,3.2l4.6,4.6c0.8,0.8,2,1.1,3.2,0.8
		s2-1.2,2.3-2.3c0.3-1.1,0-2.3-0.8-3.2L199.7,432.1z"/>
	<path class="st1" d="M190.4,441.4c-0.8-0.8-2-1.1-3.2-0.8s-2,1.2-2.3,2.3s0,2.3,0.8,3.2l4.6,4.6c1.3,1.3,3.3,1.3,4.6,0
		c1.3-1.3,1.3-3.3,0-4.6L190.4,441.4z"/>
	<path class="st1" d="M181.2,450.6c-0.8-0.8-2-1.1-3.2-0.8s-2,1.2-2.3,2.3s0,2.3,0.8,3.2l4.6,4.6c1.3,1.3,3.3,1.3,4.6,0
		c1.3-1.3,1.3-3.3,0-4.6L181.2,450.6z"/>
	<path class="st1" d="M171.9,459.9c-1.3-1.3-3.3-1.3-4.6,0c-1.3,1.3-1.3,3.3,0,4.6l4.6,4.6c1.3,1.3,3.3,1.3,4.6,0
		c1.3-1.3,1.3-3.3,0-4.6L171.9,459.9z"/>
	<path class="st1" d="M162.6,469.1c-0.8-0.8-2-1.1-3.2-0.8s-2,1.2-2.3,2.3s0,2.3,0.8,3.2l4.6,4.6c1.3,1.3,3.3,1.3,4.6,0
		c1.3-1.3,1.3-3.3,0-4.6L162.6,469.1z"/>
</g>
</svg>
