<?xml version="1.0" encoding="utf-8"?>
<!-- Generator: Adobe Illustrator 20.1.0, SVG Export Plug-In . SVG Version: 6.00 Build 0)  -->
<svg version="1.1" id="Layer_1" xmlns="http://www.w3.org/2000/svg" xmlns:xlink="http://www.w3.org/1999/xlink" x="0px" y="0px"
	 viewBox="-49 141 512 512" style="enable-background:new -49 141 512 512;" xml:space="preserve">
<style type="text/css">
	.st0{fill:none;stroke:#3A107B;stroke-width:3;stroke-miterlimit:10;}
	.st1{fill:#3A107B;}
	.st2{fill:none;}
</style>
<ellipse class="st0" cx="207.2" cy="397.3" rx="250.5" ry="251.3"/>
<path class="st1" d="M153.6,302.5c-4.9,0-9.6,2.1-12.8,5.7c-3.2,3.6-4.8,8.4-4.4,13.2h-0.1v154.7c0,8.8,7.1,15.9,15.9,15.9h125.9
	V302.5H153.6z M142.6,476.2V334.1c2.6,2,5.9,3.2,9.4,3.2v148.6C146.8,485.7,142.6,481.5,142.6,476.2L142.6,476.2z M271.8,485.8
	H158.4V337.3h9.4v79.7c0,2.2,1.4,4,3.5,4.6c0.4,0.1,0.9,0.2,1.3,0.2c0,0,0.1,0,0.1,0c0.1,0,0.3,0,0.4-0.1c0.3,0,0.6-0.1,0.9-0.2
	c0.2,0,0.3-0.1,0.4-0.2c0.3-0.1,0.6-0.3,0.8-0.5c0.1-0.1,0.2-0.2,0.3-0.2c0.4-0.3,0.7-0.7,0.9-1.1l13.3-22.2l13.3,22.2
	c1,1.7,3,2.5,4.9,2.2c0.2,0,0.3,0,0.4,0c2.1-0.6,3.5-2.4,3.5-4.6v-79.7h59.9V485.8z M206.1,332.5L206.1,332.5l-0.4,0.9v0.1l-0.3,0.7
	l0.3,0.5v76.5l-15.8-26.3l-15.8,26.3v-76.4l5.1-10.2H210L206.1,332.5z M213.9,330.9l6.3-12.6h-44.8l-6.3,12.6h-14.7
	c-6,0-11.1-4.4-11.6-9.9c-0.3-3.1,0.7-6.2,2.8-8.5c2.1-2.3,5.1-3.7,8.2-3.7h118.2v3.1H256c-1.7,0-3.1,1.4-3.1,3.2
	c0,1.7,1.4,3.2,3.1,3.2h15.8v3.2h-12.6c-1.7,0-3.2,1.4-3.2,3.2c0,1.7,1.4,3.1,3.2,3.1h12.6v3.2H213.9z M213.9,330.9"/>
<rect x="136.3" y="302.5" class="st2" width="141.8" height="189.7"/>
</svg>
