<?xml version="1.0" encoding="utf-8"?>
<!-- Generator: Adobe Illustrator 20.1.0, SVG Export Plug-In . SVG Version: 6.00 Build 0)  -->
<svg version="1.1" id="Layer_1" xmlns="http://www.w3.org/2000/svg" xmlns:xlink="http://www.w3.org/1999/xlink" x="0px" y="0px"
	 viewBox="-49 141 512 512" style="enable-background:new -49 141 512 512;" xml:space="preserve">
<style type="text/css">
	.st0{fill:none;stroke:#3A107B;stroke-width:3;stroke-miterlimit:10;}
	.st1{fill:#3A107B;}
</style>
<ellipse class="st0" cx="206.7" cy="397.5" rx="250.7" ry="252.1"/>
<g>
	<path class="st1" d="M283.1,428c-4-2.5-9.2-2.8-13.5-0.7l-30.3,14.8v-1.6c0-7.7-5.9-13.8-13.6-13.8h-29.3c-6,0-12.1-1-17.8-2.8
		l-19.1-6v-7.8c0-2.5-1.6-4.6-4.1-4.6h-26.8c-2.5,0-4.8,2.1-4.8,4.6v71.4c0,2.5,2.4,4.4,4.8,4.4h26.8c2.5,0,4.1-1.9,4.1-4.4v-7.2
		l3.2,2.4c8.1,6.5,18.4,10.1,28.8,10.1h25.8c9.2,0,18.1-2.7,25.8-8l40.5-27.8c3.7-2.6,6-6.8,6-11.4
		C289.5,434.9,287.1,430.5,283.1,428z M150.6,476.9h-17.8v-62.4h17.8V476.9z M278.5,443.6L238,471.4c-6.1,4.2-13.3,6.4-20.7,6.4
		h-25.8c-8.3,0-16.7-2.9-23.2-8.1l-8.8-6.9v-35.5l16.5,5.2c6.6,2,13.6,3.2,20.5,3.2h29.3c2.8,0,4.6,2.1,4.6,4.8v5.4
		c-5.4,1.5-17.9,4.1-30.6,2c-2.4-0.4-4.6,1.3-5,3.7c-0.4,2.4,1.3,4.8,3.7,5.1c3.9,0.6,7.7,0.9,11.4,0.9c14.4,0,25.9-3.9,26.7-4.1
		c0,0,0,0,0,0c0,0,0,0,0,0c0.2-0.1,0.3-0.1,0.5-0.2c0,0,0,0,0,0l36.5-17.9c1.5-0.7,3.2-0.7,4.6,0.2c1.4,0.9,2.2,2.4,2.2,4.1
		C280.6,441.3,279.8,442.7,278.5,443.6z"/>
	<path class="st1" d="M285.1,309.1h-26.8c-2.5,0-4.7,2.1-4.7,4.6v7.2l-2.9-2.5c-8.1-6.5-18.1-10.2-28.5-10.2h-25.8
		c-9.2,0-18.1,2.8-25.8,8L130.1,344c-3.7,2.6-6,6.8-6,11.4c0,4.8,2.4,9.2,6.4,11.7c4,2.5,8.9,2.8,13.2,0.7l30-14.8v1.6
		c0,7.7,6.5,14.1,14.2,14.1h29.3c6,0,11.8,0.9,17.5,2.6l18.8,5.8v7.8c0,2.5,2.2,4.4,4.7,4.4h26.8c2.5,0,4.2-1.9,4.2-4.4v-71.4
		C289.3,311.2,287.5,309.1,285.1,309.1z M237.4,362.8c-6.6-2-13.3-3-20.2-3h-29.3c-2.8,0-5.2-2.4-5.2-5.1v-5.4
		c5.8-1.5,18.2-4.1,30.9-2c2.4,0.4,4.8-1.3,5.2-3.7c0.4-2.4-1.2-4.8-3.7-5.1c-19.1-3.1-37.1,2.9-38,3.3c0,0,0,0,0,0c0,0,0,0,0,0
		c-0.1,0-0.2,0.1-0.3,0.1c-0.1,0-0.2,0.1-0.3,0.1L140,359.8c-1.5,0.7-3.2,0.7-4.6-0.2c-1.4-0.9-2.2-2.4-2.2-4.1c0-1.6,0.8-3.1,2.1-4
		l40.5-27.9c6.1-4.2,13.3-6.5,20.7-6.5h25.8c8.3,0,16.4,2.9,22.9,8.2l8.5,7v35.5L237.4,362.8z M280.4,380.4h-17.8V318h17.8V380.4z"
		/>
	<path class="st1" d="M206.1,418c0.8,0.6,1.7,0.8,2.6,0.8c0.9,0,1.8-0.3,2.6-0.8c0.2-0.1,4.4-3.2,8.8-7.3c6.5-6.2,9.7-11.5,9.7-16.1
		c0-7.8-6.3-14.1-14-14.1c-2.5,0-4.9,0.7-7,1.9c-2.1-1.2-4.5-1.9-7-1.9c-7.7,0-14,6.3-14,14.1c0,4.6,3.2,9.9,9.7,16.1
		C201.6,414.8,205.9,417.8,206.1,418z M201.6,389.5c1.4,0,2.8,0.6,3.7,1.7c0.8,0.9,2,1.5,3.3,1.5c1.3,0,2.4-0.5,3.3-1.5
		c1-1.1,2.3-1.7,3.7-1.7c2.8,0,5.1,2.3,5.1,5.1c0,2.9-6,9.2-12.1,14.1c-6.2-4.9-12.1-11.3-12.1-14.1
		C196.5,391.8,198.8,389.5,201.6,389.5z"/>
</g>
</svg>
