<?xml version="1.0" encoding="utf-8"?>
<!-- Generator: Adobe Illustrator 20.1.0, SVG Export Plug-In . SVG Version: 6.00 Build 0)  -->
<svg version="1.1" id="Layer_1" xmlns="http://www.w3.org/2000/svg" xmlns:xlink="http://www.w3.org/1999/xlink" x="0px" y="0px"
	 viewBox="-49 141 512 512" style="enable-background:new -49 141 512 512;" xml:space="preserve">
<style type="text/css">
	.st0{fill:none;stroke:#3A107B;stroke-width:3;stroke-miterlimit:10;}
	.st1{fill:#3A107B;}
</style>
<ellipse class="st0" cx="206.5" cy="397" rx="250.9" ry="251.7"/>
<g>
	<path class="st1" d="M311.3,333.7c-2-1.2-17-10.4-17-10.4s10.8-31.1,9.9-35.4c-0.9-4.3-5.5-6-5.5-6l-18.2,33.8l-18.7-8.2l-0.1-12.3
		l-5.7-5.1c0,0-1.7,14.1-4.1,17.5c-2.4,3.4-11.7,9.8-11.7,9.8l4.9,5l12.8-6.9l15.8,11L254,359.4c0,0,4,4.9,7.9,2.7
		c3.9-2.1,22.9-26.6,22.9-26.6s18.5,10.3,20.4,10.8c2,0.5,6.8,3,9.3-2.8C316.8,337.6,313.3,335,311.3,333.7L311.3,333.7z
		 M311.3,333.7"/>
	<path class="st1" d="M282.1,367.6c-2.8-3.3-5.9-6.4-9.1-9.2l-4.7,4.9c3,2.6,5.8,5.4,8.4,8.4c-4.6,3-10,5.7-15.9,7.9
		c-4.4-13.1-10.8-24-18.5-31.3c2.9,1,5.7,2.1,8.5,3.4l3.6-5.9c-10.8-5.2-22.9-8.1-35.7-8.1h-0.2c-0.1,0-0.2,0-0.3,0
		c-25.3,0.2-47.9,11.8-63,29.9c-1.4,1.7-2.7,3.4-4,5.2c-9.6,13.5-15.2,30-15.2,47.8c0,17.8,5.6,34.3,15.2,47.8
		c1.2,1.8,2.6,3.5,4,5.2c15.1,18.1,37.7,29.7,63,29.9c0.1,0,0.2,0,0.3,0h0.2c25.5,0,48.3-11.6,63.5-29.9c1.4-1.7,2.7-3.4,4-5.2
		c9.6-13.5,15.2-30,15.2-47.8c0-17.8-5.6-34.3-15.2-47.8C284.8,371,283.5,369.2,282.1,367.6L282.1,367.6z M194.5,348.4
		c-7.6,7.4-13.9,18.1-18.2,31c-5.8-2.2-11.1-4.8-15.6-7.8C169.5,361.1,181.1,353,194.5,348.4L194.5,348.4z M156.6,376.8
		c5.1,3.5,11.1,6.5,17.6,8.9c-2.8,10.4-4.5,21.9-4.5,34.1h-27C142.9,403.9,148.1,389,156.6,376.8L156.6,376.8z M143,426.6h26.9
		c0.4,10.2,2,19.9,4.4,28.7c-6.6,2.5-12.5,5.5-17.6,8.9C149,453.4,144.1,440.6,143,426.6L143,426.6z M160.6,469.5
		c4.5-3,9.8-5.6,15.6-7.8c4.3,12.9,10.7,23.6,18.3,31C181.1,488.1,169.5,480,160.6,469.5L160.6,469.5z M215.2,496.4
		c-13.9-1.9-25.9-16.2-32.7-36.8c9.8-2.9,20.9-4.7,32.7-5V496.4z M215.2,447.7c-12.5,0.3-24.2,2.2-34.6,5.4
		c-2.1-8.2-3.5-17.1-3.9-26.5h38.5V447.7z M215.2,419.8h-38.7c0.1-11.4,1.5-22.2,4.1-31.9c10.4,3.2,22.2,5.1,34.6,5.4L215.2,419.8
		L215.2,419.8z M215.2,386.6c-11.8-0.3-22.9-2.1-32.7-5c6.8-20.6,18.8-34.9,32.7-36.8V386.6z M222,344.8
		c13.8,2.1,25.6,16.4,32.3,36.9c-9.7,2.9-20.7,4.7-32.3,4.9V344.8z M222,393.4c12.3-0.3,23.9-2.2,34.2-5.3c2.5,9.7,4,20.4,4.1,31.8
		H222V393.4z M222,426.6h38.2c-0.4,9.4-1.8,18.3-3.9,26.4c-10.3-3.1-21.9-5-34.2-5.3V426.6z M222,496.3v-41.8
		c11.7,0.3,22.6,2,32.4,4.9C247.6,479.9,235.8,494.2,222,496.3L222,496.3z M242.1,492.9c7.7-7.4,14.1-18.3,18.5-31.3
		c5.9,2.2,11.3,4.9,15.9,7.9C267.6,480.2,255.7,488.4,242.1,492.9L242.1,492.9z M280.6,464.3c-5.2-3.5-11.3-6.6-18-9.1
		c2.4-8.8,3.9-18.4,4.3-28.5h27.3C293.1,440.6,288.2,453.4,280.6,464.3L280.6,464.3z M267.1,419.8c-0.1-12.1-1.7-23.6-4.5-33.9
		c6.7-2.5,12.8-5.6,18-9.1c8.6,12.2,13.7,27,13.9,43H267.1z M267.1,419.8"/>
	<path class="st1" d="M111.4,418.5c0-60.6,49.2-109.9,109.6-109.9c6.3,0,12.3,0.6,18.3,1.6l6.9-4.3l2.3-7.6
		c-7.8-1.6-19.2-3.3-27.5-3.3c-67.9,0-123.1,55.4-123.1,123.5c0,7.2,0.4,13.9,1.2,20.3c3.4,26.7,37.3,73.2,64.3,73.2
		C134.1,491,111.4,457.9,111.4,418.5L111.4,418.5z M111.4,418.5"/>
</g>
</svg>
