<?xml version="1.0" encoding="utf-8"?>
<!-- Generator: Adobe Illustrator 20.1.0, SVG Export Plug-In . SVG Version: 6.00 Build 0)  -->
<svg version="1.1" id="Layer_1" xmlns="http://www.w3.org/2000/svg" xmlns:xlink="http://www.w3.org/1999/xlink" x="0px" y="0px"
	 viewBox="-49 141 512 512" style="enable-background:new -49 141 512 512;" xml:space="preserve">
<style type="text/css">
	.st0{fill:none;stroke:#3A107B;stroke-width:3;stroke-miterlimit:10;}
	.st1{fill:#3A107B;}
</style>
<ellipse class="st0" cx="206.8" cy="396.2" rx="249.8" ry="248.8"/>
<g>
	<path class="st1" d="M307.7,381.7c-0.2-0.9-0.6-1.7-1.3-2.3c-6.6-5.6-7.7-11.7-8.6-16.6l-0.1-0.6c-0.3-1.7-1.7-3-3.4-3.2
		c-0.6-0.1-1.2-0.1-1.8-0.1c-3.8,0-9.1,1.6-12.5,5.2c-0.6,0.6-0.9,1.4-1.1,2.2c-0.3,2.1-0.4,4.1-0.6,5.8c-0.5,6.5-0.9,7.2-2.9,7.8
		c-1.2,0.4-2.2,1.4-2.6,2.6c-1.9,6-4.4,11.7-7.4,17.2c-1.5-2.8-3.1-5.4-4.7-7.7c-3.7-5.8-6.7-10.3-5.7-16
		c3.3-18.3,1.6-32.1-4.9-41.1c-3.6-5-8.8-8.3-15.1-9.9c1.3-9.7,8.1-14.2,11.8-15.2c2.1-0.6,3.4-2.7,2.8-4.9
		c-0.6-2.1-2.8-3.4-4.9-2.8c-7.8,2.1-16.1,9.7-17.7,21.9c-6.4,0-12.1,1.9-16.9,5.7c-8.7,6.9-13.9,19.8-15.6,38.2
		c-0.5,5.5-4.1,8.8-9.1,13.3c-4.1,3.7-8.6,7.7-12.2,13.9c-4.5-1.8-9.4-3-14.5-3.5c1.4-9.4,8-13.6,11.7-14.6c2.1-0.6,3.4-2.7,2.8-4.9
		c-0.6-2.1-2.8-3.4-4.9-2.8c-2,0.5-4,1.4-6,2.7c-0.9-4.5-3.1-8.6-6.4-12c-4.5-4.4-10.4-6.9-16.7-6.9c-2.1,0-4.1,0.3-6.1,0.8
		c-1.4,0.4-2.5,1.4-2.8,2.8c-2.2,8.1,0.2,16.8,6.1,22.7c4.1,4.1,9.5,6.5,15.3,6.8c-0.5,1.6-0.9,3.4-1.1,5.2
		c-25.7,1.9-46,23.4-46,49.5c0,27.4,22.3,49.6,49.8,49.6c10.2,0,19.9-3,28.3-8.8c1.3,0.6,2.6,1.1,3.9,1.6c12,4.7,24.1,7.1,36.1,7.1
		c19.2,0,37-6.2,51.5-18c15.2-12.3,26.3-30.6,32.3-52.8C308.4,412.4,310.2,395.4,307.7,381.7z M190.8,387
		c5.4-4.8,10.9-9.8,11.7-18.5c1.5-16.2,5.7-27.2,12.6-32.7c4.1-3.3,9.2-4.5,15.1-3.7c5.8,0.8,10.4,3.3,13.4,7.4
		c5.2,7.1,6.4,18.9,3.5,35c-1.6,8.7,2.7,15.3,6.8,21.7c2.3,3.6,4.7,7.3,6.3,11.5c-13.4,19.3-33.8,33.4-56.3,38.6
		c0.2-1.8,0.3-3.6,0.3-5.3c0-17.9-9.6-33.7-23.9-42.4C183.3,393.7,187.1,390.3,190.8,387z M142.1,373.8c-3.4-3.3-5-8-4.5-12.6
		c0.6-0.1,1.1-0.1,1.7-0.1c4.2,0,8.1,1.6,11,4.6c3.4,3.3,5,8,4.5,12.6c-0.6,0.1-1.1,0.1-1.7,0.1h0
		C149,378.3,145.1,376.7,142.1,373.8z M154.5,482.6c-23.1,0-41.8-18.7-41.8-41.7s18.8-41.7,41.8-41.7c23.1,0,41.8,18.7,41.8,41.7
		c0,2.3-0.2,4.6-0.6,6.8c-2.6,0.3-5.2,0.5-7.7,0.6c0.5-2.4,0.8-4.9,0.8-7.5c0-4.5-0.9-8.8-2.6-13c-0.8-2-3.2-3-5.2-2.2
		c-2,0.8-3,3.2-2.2,5.2c1.3,3.2,2,6.5,2,10c0,2.5-0.4,5-1.1,7.3c-5.7-0.4-11.4-1.3-17.1-2.8c-1.1-0.3-2.4-0.1-3.3,0.6
		c-3.5,2.5-7.1,5.7-9.2,11.7c-0.5,1.6-0.1,3.3,1.2,4.4c7.3,6.1,15,11.3,22.9,15.5C168.2,480.9,161.5,482.6,154.5,482.6z
		 M298.8,417.6c-10.9,40.7-39.4,65-76.1,65c-21.4,0-44-8.7-63.9-24.7c1.1-1.9,2.4-3.2,3.8-4.3c7.5,1.8,15.1,2.8,22.7,2.8
		c21.4,0,42.1-7.3,59.7-21c9-7,16.7-15.4,23-24.8c0.1-0.1,0.1-0.2,0.2-0.3c4.9-7.4,8.9-15.4,11.6-23.8c5.6-2.8,6-8.5,6.4-14
		c0.1-1.3,0.2-2.5,0.3-3.9c1.1-0.8,2.5-1.4,3.9-1.7c1.1,5.1,3.1,11.5,9.7,17.5C301.9,396.2,300.5,411.1,298.8,417.6z"/>
	<path class="st1" d="M230.2,347.6c2.9,1.2,4.5,9.9,2,24.3c-0.4,2.2,1.1,4.2,3.2,4.6c0.2,0,0.5,0.1,0.7,0.1c1.9,0,3.6-1.4,3.9-3.3
		c2.3-12.8,3-28.9-6.7-33c-2-0.8-4.4,0.1-5.2,2.1C227.2,344.4,228.2,346.7,230.2,347.6z"/>
	<path class="st1" d="M254.1,453.2C254.1,453.2,254.1,453.2,254.1,453.2c-1.8,1.3-2.2,3.8-0.9,5.6c0.8,1.1,2,1.6,3.2,1.6
		c0.8,0,1.6-0.2,2.4-0.8l0.1-0.1c1.8-1.3,2.1-3.8,0.8-5.6C258.4,452.2,255.9,451.8,254.1,453.2z"/>
	<path class="st1" d="M245.2,458.6c-13.7,7-25.2,6.7-25.3,6.7c-2.2-0.1-4,1.6-4.1,3.8c-0.1,2.2,1.6,4,3.8,4.1c0.1,0,0.3,0,0.6,0
		c2.9,0,14.7-0.5,28.6-7.5c2-1,2.7-3.4,1.7-5.3C249.5,458.4,247.1,457.6,245.2,458.6z"/>
	<path class="st1" d="M173.2,422.5c0.8,0.8,1.8,1.2,2.8,1.2c1,0,2-0.4,2.8-1.1c1.6-1.5,1.6-4.1,0-5.6l-0.1-0.1
		c-1.6-1.5-4.1-1.5-5.6,0C171.5,418.3,171.6,420.8,173.2,422.5L173.2,422.5z"/>
</g>
</svg>
